HIERARCHY
ROOT Hips
{
	OFFSET -0.001795 -0.223333 0.028219
	CHANNELS 6 Xposition Yposition Zposition Zrotation Yrotation Xrotation 
	JOINT LeftUpLeg
	{
		OFFSET 0.069520 -0.091406 -0.006815
		CHANNELS 3 Zrotation Yrotation Xrotation
		JOINT LeftLeg
		{
			OFFSET 0.034277 -0.375199 -0.004496
			CHANNELS 3 Zrotation Yrotation Xrotation
			JOINT LeftFoot
			{
				OFFSET -0.013596 -0.397961 -0.043693
				CHANNELS 3 Zrotation Yrotation Xrotation
				JOINT LeftToe
				{
					OFFSET 0.026358 -0.055791 0.119288
					CHANNELS 3 Zrotation Yrotation Xrotation
					End Site
					{
						OFFSET 0.000000 0.000000 0.000000
					}
				}
			}
		}
	}
	JOINT RightUpLeg
	{
		OFFSET -0.067670 -0.090522 -0.004320
		CHANNELS 3 Zrotation Yrotation Xrotation
		JOINT RightLeg
		{
			OFFSET -0.038290 -0.382569 -0.008850
			CHANNELS 3 Zrotation Yrotation Xrotation
			JOINT RightFoot
			{
				OFFSET 0.015774 -0.398415 -0.042312
				CHANNELS 3 Zrotation Yrotation Xrotation
				JOINT RightToe
				{
					OFFSET -0.025372 -0.048144 0.123348
					CHANNELS 3 Zrotation Yrotation Xrotation
					End Site
					{
						OFFSET 0.000000 0.000000 0.000000
					}
				}
			}
		}
	}
	JOINT Spine
	{
		OFFSET -0.002533 0.108963 -0.026696
		CHANNELS 3 Zrotation Yrotation Xrotation
		JOINT Spine1
		{
			OFFSET 0.005487 0.135180 0.001092
			CHANNELS 3 Zrotation Yrotation Xrotation
			JOINT Spine2
			{
				OFFSET 0.001457 0.052922 0.025425
				CHANNELS 3 Zrotation Yrotation Xrotation
				JOINT Neck
				{
					OFFSET -0.002778 0.213870 -0.042857
					CHANNELS 3 Zrotation Yrotation Xrotation
					JOINT Head
					{
						OFFSET 0.005152 0.064970 0.051349
						CHANNELS 3 Zrotation Yrotation Xrotation
						End Site
						{
							OFFSET 0.000000 0.000000 0.000000
						}
					}
				}
				JOINT LeftShoulder
				{
					OFFSET 0.078845 0.121749 -0.034090
					CHANNELS 3 Zrotation Yrotation Xrotation
					JOINT LeftArm
					{
						OFFSET 0.090977 0.030469 -0.008868
						CHANNELS 3 Zrotation Yrotation Xrotation
						JOINT LeftForeArm
						{
							OFFSET 0.259612 -0.012772 -0.027456
							CHANNELS 3 Zrotation Yrotation Xrotation
							JOINT LeftHand
							{
								OFFSET 0.249234 0.008986 -0.001171
								CHANNELS 3 Zrotation Yrotation Xrotation
								End Site
								{
									OFFSET 0.000000 0.000000 0.000000
								}
							}
						}
					}
				}
				JOINT RightShoulder
				{
					OFFSET -0.081759 0.118833 -0.038615
					CHANNELS 3 Zrotation Yrotation Xrotation
					JOINT RightArm
					{
						OFFSET -0.096012 0.032551 -0.009143
						CHANNELS 3 Zrotation Yrotation Xrotation
						JOINT RightForeArm
						{
							OFFSET -0.253742 -0.013329 -0.021401
							CHANNELS 3 Zrotation Yrotation Xrotation
							JOINT RightHand
							{
								OFFSET -0.255298 0.007772 -0.005559
								CHANNELS 3 Zrotation Yrotation Xrotation
								End Site
								{
									OFFSET 0.000000 0.000000 0.000000
								}
							}
						}
					}
				}
			}
		}
	}
}
MOTION
Frames: 16
Frame Time: 0.050000
0.000000 0.919403 0.000000 -1.131282 -2.132871 7.690616 6.237299 -0.656788 -15.041347 -7.397643 1.406005 15.028467 12.063615 23.743900 8.544356 0.000000 0.000000 0.000000 -9.116070 1.054864 -25.983918 4.385673 -0.378211 13.871718 -4.816930 -14.665229 14.191220 0.000000 0.000000 0.000000 7.682991 -3.113908 27.308046 -6.861505 2.208336 -21.964380 -1.543767 2.852366 28.539754 15.610887 -6.503935 -30.136447 0.000000 0.000000 0.000000 -15.690845 -7.567941 2.883237 -49.845492 9.546871 -11.912946 -56.858003 -48.573557 30.734010 0.000000 0.000000 0.000000 23.225159 -4.895510 -3.902852 45.721756 -13.389929 -11.237184 70.833142 46.324862 36.580154 0.000000 0.000000 0.000000 
-0.023234 0.914877 0.013553 -1.919741 -2.260621 8.509420 8.462390 -0.412155 -14.561750 -7.107042 1.327985 14.623091 12.234575 24.116408 7.640698 0.000000 0.000000 0.000000 -7.079535 1.469117 -26.283831 4.770603 -0.455434 13.836965 -5.227414 -15.299186 13.118615 0.000000 0.000000 0.000000 8.193734 -3.367914 28.172692 -4.972704 1.738330 -20.989042 -1.417128 3.047458 26.806365 15.009830 -5.452838 -32.702487 0.000000 0.000000 0.000000 -18.077704 -6.995183 2.469572 -48.375511 8.109018 -10.785423 -57.069163 -47.995222 30.266529 0.000000 0.000000 0.000000 23.845693 -4.493833 -3.801451 45.262809 -14.597150 -11.294492 70.716829 45.651318 35.647092 0.000000 0.000000 0.000000 
-0.046550 0.912079 0.027667 -1.468371 -2.279683 8.392963 9.166788 -0.334016 -14.072445 -6.486636 1.218280 15.809574 12.170110 23.924222 8.478136 0.000000 0.000000 0.000000 -6.475535 1.524519 -25.325586 5.701648 -0.660598 14.118244 -5.722332 -15.791312 9.547297 0.000000 0.000000 0.000000 9.656080 -3.807588 28.437998 -5.372517 1.843715 -20.827746 -2.845457 2.029794 27.193106 15.071925 -5.548739 -33.228716 0.000000 0.000000 0.000000 -18.200095 -7.351094 2.950793 -49.364502 7.182298 -10.761539 -53.409252 -48.095698 28.624634 0.000000 0.000000 0.000000 25.343436 -4.857314 -4.552872 44.609709 -14.787243 -11.164508 67.985078 42.613281 31.271062 0.000000 0.000000 0.000000 
-0.069076 0.909216 0.042460 -1.531627 -2.803252 7.977678 10.558594 -0.159728 -14.226926 -6.594593 1.423071 19.448356 12.289045 24.025874 9.127396 0.000000 0.000000 0.000000 -5.098991 1.783598 -25.144286 6.241835 -0.775194 16.395311 -5.954131 -15.902485 6.302461 0.000000 0.000000 0.000000 10.551517 -4.167455 29.714272 -5.927048 1.950598 -21.892714 -2.791461 1.210201 28.070260 13.916459 -5.243665 -32.948774 0.000000 0.000000 0.000000 -19.767997 -8.354682 3.867534 -48.974376 7.236904 -10.837573 -50.914468 -47.967487 27.394010 0.000000 0.000000 0.000000 26.187545 -3.220854 -3.970434 44.040214 -15.226805 -11.171577 65.290067 42.997026 29.784201 0.000000 0.000000 0.000000 
-0.089992 0.907040 0.057666 -2.012397 -4.097126 7.172144 11.801362 0.077454 -14.845577 -6.229625 1.680872 25.298216 12.592249 24.273695 10.648383 0.000000 0.000000 0.000000 -2.740653 2.181833 -24.255582 5.741885 -0.582028 18.285210 -5.818668 -15.237832 3.378576 0.000000 0.000000 0.000000 10.990043 -4.284629 30.842822 -5.948721 1.944972 -21.647464 -3.146403 1.057191 27.933179 13.438058 -5.542889 -30.942170 0.000000 0.000000 0.000000 -19.957004 -8.388925 4.104246 -49.333406 6.974607 -10.868169 -51.224364 -46.845191 27.070361 0.000000 0.000000 0.000000 25.866962 -2.951728 -4.017707 44.912048 -15.363912 -11.447422 65.520379 39.691212 27.284644 0.000000 0.000000 0.000000 
-0.107604 0.905443 0.073687 -2.072808 -4.583594 6.747234 11.870050 0.182638 -17.024528 -6.054976 2.073118 32.661755 14.090713 26.200722 12.964708 0.000000 0.000000 0.000000 -1.622577 2.317560 -23.576192 6.095921 -0.636850 19.996129 -5.948596 -15.145740 1.211663 0.000000 0.000000 0.000000 10.734077 -4.222205 31.543442 -5.419795 1.797694 -22.099879 -2.776051 1.358742 28.090534 12.292181 -4.829200 -31.533668 0.000000 0.000000 0.000000 -20.767703 -9.263167 4.627192 -48.969834 6.555958 -10.651980 -51.831303 -44.665517 26.011214 0.000000 0.000000 0.000000 24.566418 -2.537062 -3.531814 46.482654 -15.845215 -12.108659 66.350056 38.303378 26.756366 0.000000 0.000000 0.000000 
-0.120961 0.904317 0.089514 -2.752861 -5.871343 6.685515 12.710653 0.541230 -20.410339 -7.354557 3.511224 40.550432 16.801228 29.248780 16.827283 0.000000 0.000000 0.000000 0.117235 2.656355 -23.548023 5.954945 -0.484663 22.145813 -5.742194 -14.412504 0.002012 0.000000 0.000000 0.000000 11.277930 -4.239523 31.495189 -6.344679 1.998731 -22.347424 -2.103127 2.099180 28.123419 11.054563 -4.431359 -30.126593 0.000000 0.000000 0.000000 -21.148287 -8.725390 4.334919 -48.055620 7.514018 -10.827440 -53.672539 -42.886033 25.797122 0.000000 0.000000 0.000000 24.822548 -3.010742 -3.839282 44.774631 -16.309413 -11.795246 67.418363 35.230114 24.801188 0.000000 0.000000 0.000000 
-0.130123 0.903380 0.105566 -2.501112 -5.480068 6.278029 11.763666 0.479514 -23.881657 -8.601422 4.670873 46.457435 19.695843 32.457901 19.172043 0.000000 0.000000 0.000000 0.204494 2.612164 -23.235094 6.430431 -0.633211 24.399944 -6.053317 -14.995348 -0.755651 0.000000 0.000000 0.000000 11.062871 -4.184949 31.308218 -5.151561 1.711927 -22.306398 -2.188853 3.076566 28.088683 10.328554 -3.961594 -29.400158 0.000000 0.000000 0.000000 -22.610875 -9.415647 4.418589 -46.218742 9.074729 -10.856638 -56.338180 -42.379048 26.441030 0.000000 0.000000 0.000000 23.656225 -3.488041 -3.573200 45.036278 -16.940847 -12.154783 69.013023 33.079055 24.173341 0.000000 0.000000 0.000000 
-0.135886 0.903020 0.122036 -2.316170 -5.867021 5.680455 10.705868 0.408396 -27.161587 -10.967863 6.393845 48.444315 22.536466 35.495630 20.467322 0.000000 0.000000 0.000000 0.669760 2.624041 -22.656103 5.970270 -0.421094 26.575294 -6.066522 -14.900132 -1.214121 0.000000 0.000000 0.000000 10.721714 -4.087114 31.882168 -5.450838 1.769332 -23.006819 -1.103992 4.363223 28.564341 9.990693 -3.708610 -28.944088 0.000000 0.000000 0.000000 -23.285357 -9.230714 3.980932 -44.451817 10.711612 -10.952757 -58.525815 -42.134531 27.052753 0.000000 0.000000 0.000000 23.237018 -4.028946 -3.456015 43.804827 -18.612245 -12.464667 69.930864 31.433427 23.482673 0.000000 0.000000 0.000000 
-0.139547 0.904133 0.138963 -1.925568 -5.928358 4.902002 8.939957 0.049818 -29.587305 -12.263252 6.173029 41.962897 26.947518 38.731087 25.675392 0.000000 0.000000 0.000000 0.771562 2.482758 -21.462382 5.483038 -0.217751 27.994565 -6.079827 -14.895049 -1.185693 0.000000 0.000000 0.000000 10.113704 -3.926903 32.464529 -5.475010 1.773674 -23.632352 -0.802684 6.068186 28.896323 10.166900 -3.722416 -27.693044 0.000000 0.000000 0.000000 -22.917398 -9.454558 3.542651 -43.459726 11.822517 -10.944854 -60.069768 -41.105236 26.694968 0.000000 0.000000 0.000000 22.985592 -4.493757 -3.170329 44.146850 -19.162145 -12.851056 69.452522 30.755419 23.267407 0.000000 0.000000 0.000000 
-0.141252 0.906149 0.155810 -1.565842 -5.125766 4.163949 7.143700 -0.490307 -31.426797 -12.718969 4.479258 28.898891 39.752743 43.186990 45.217052 0.000000 0.000000 0.000000 0.664840 2.265162 -20.079384 5.206228 -0.177488 28.972168 -6.276137 -15.492563 -0.459112 0.000000 0.000000 0.000000 9.934784 -3.977611 32.855290 -5.514515 1.798748 -23.941192 -1.140835 6.892086 28.890951 10.237707 -3.627473 -27.341516 0.000000 0.000000 0.000000 -21.930908 -8.572447 2.629613 -41.997753 13.132642 -10.900623 -62.565550 -39.787453 26.604159 0.000000 0.000000 0.000000 23.956872 -4.274994 -2.698761 41.940573 -19.799832 -12.439673 71.120835 30.477497 23.884744 0.000000 0.000000 0.000000 
-0.141220 0.905928 0.172601 -1.495967 -4.732899 3.267904 6.115812 -0.817125 -32.082774 -12.029054 3.037097 18.315405 35.000817 39.879151 44.387802 0.000000 0.000000 0.000000 0.611008 2.015153 -18.192072 5.161234 -0.192984 29.427004 -6.410957 -15.746376 -0.645108 0.000000 0.000000 0.000000 8.749411 -3.717177 33.712817 -5.080614 1.697382 -24.603493 -0.039026 8.730080 29.379265 10.514020 -3.588449 -26.533587 0.000000 0.000000 0.000000 -22.049880 -8.762808 2.075922 -40.089604 14.739770 -10.715919 -64.597144 -38.541542 26.101345 0.000000 0.000000 0.000000 23.634887 -5.211523 -2.613397 40.739017 -19.308498 -12.025420 72.034339 29.951353 24.333328 0.000000 0.000000 0.000000 
-0.139598 0.905544 0.189641 -1.253643 -3.471233 2.612631 4.577200 -1.368875 -31.722802 -10.719325 2.146508 12.895376 28.691319 36.059356 40.707449 0.000000 0.000000 0.000000 0.301038 1.674861 -15.798220 5.109709 -0.326357 28.669224 -6.816129 -16.627404 -1.256826 0.000000 0.000000 0.000000 8.295047 -3.744651 34.165512 -5.444858 1.804926 -25.135667 0.176860 8.445010 29.587241 10.655817 -3.704924 -26.123363 0.000000 0.000000 0.000000 -20.743574 -8.275407 1.768329 -40.363834 16.923559 -11.499533 -66.428640 -38.317649 26.681073 0.000000 0.000000 0.000000 23.284100 -4.735626 -2.173544 40.518562 -19.474823 -12.028555 72.727964 30.138789 24.857061 0.000000 0.000000 0.000000 
-0.136860 0.902807 0.207112 -1.088353 -3.267504 2.180088 3.771237 -1.587251 -31.171344 -10.463367 1.992271 11.705361 29.046516 36.462907 40.366767 0.000000 0.000000 0.000000 -0.267372 1.417455 -13.982948 5.385692 -0.448572 28.487245 -6.940781 -16.754515 -2.479454 0.000000 0.000000 0.000000 6.732629 -3.278136 34.432665 -5.064723 1.726349 -25.096385 0.742590 9.911158 29.540609 10.815801 -3.630580 -25.499558 0.000000 0.000000 0.000000 -19.564123 -8.552743 1.540557 -39.725191 18.270875 -11.635520 -67.972235 -36.508947 25.560096 0.000000 0.000000 0.000000 23.987654 -4.800514 -1.803724 40.286443 -19.557020 -12.028471 73.357119 31.022534 26.154980 0.000000 0.000000 0.000000 
-0.133057 0.900002 0.225405 -1.617642 -2.022976 1.766348 3.191518 -1.785268 -29.810551 -9.924340 1.841650 12.168189 30.793816 37.990902 40.365753 0.000000 0.000000 0.000000 0.144086 1.347963 -13.093477 5.454476 -0.608264 30.012774 -7.388265 -18.010672 -1.704766 0.000000 0.000000 0.000000 6.465241 -3.301366 34.032540 -4.974964 1.741818 -24.615839 0.393810 9.545832 29.713041 10.572704 -3.562317 -24.905863 0.000000 0.000000 0.000000 -17.118305 -8.153385 1.483512 -41.367328 19.254763 -12.628632 -68.941388 -35.824124 25.412711 0.000000 0.000000 0.000000 24.060895 -4.512995 -1.516175 40.424771 -18.581344 -11.856332 73.358935 33.295121 28.239022 0.000000 0.000000 0.000000 
-0.128188 0.896160 0.243684 -1.595679 -0.543055 2.242193 2.699488 -1.999028 -29.231922 -10.581560 1.913333 12.137696 30.971033 39.345282 36.743869 0.000000 0.000000 0.000000 -0.346966 1.294384 -13.123625 6.495425 -1.213657 31.477498 -8.528963 -20.878347 -1.206161 0.000000 0.000000 0.000000 5.513171 -3.114014 33.374544 -4.926528 1.749982 -24.701448 0.669983 9.296441 29.750197 9.119782 -2.557513 -24.836190 0.000000 0.000000 0.000000 -17.367823 -7.678363 1.071118 -40.580475 20.411868 -12.665404 -68.964552 -35.139500 24.677177 0.000000 0.000000 0.000000 24.232348 -4.436722 -1.303138 40.244227 -18.324214 -11.739880 74.162430 34.403243 29.704830 0.000000 0.000000 0.000000 
